<?xml version="1.0" encoding="utf-8"?>
<!-- Generator: Adobe Illustrator 17.0.2, SVG Export Plug-In . SVG Version: 6.00 Build 0)  -->
<!DOCTYPE svg PUBLIC "-//W3C//DTD SVG 1.1//EN" "http://www.w3.org/Graphics/SVG/1.1/DTD/svg11.dtd">
<svg version="1.1" id="Layer_1" xmlns="http://www.w3.org/2000/svg" xmlns:xlink="http://www.w3.org/1999/xlink" x="0px" y="0px"
	 width="841.89px" height="595.28px" viewBox="0 0 841.89 595.28" enable-background="new 0 0 841.89 595.28" xml:space="preserve">
<g>
	<path fill-rule="evenodd" clip-rule="evenodd" fill="#231F20" d="M399.457,258.333h-6.738h-10.401l0,0
		c-1.269,0-1.269,0-1.269,0.928l0,0v34.546l0,0c-0.024-0.024-0.024,0-0.049,0.025l0,0v0.024l0,0
		c0.025,0.195,0.244,0.757,0.977,0.757c0.748,0,7.579,0,8.301,0c0.806,0,0.806,0,0.806-0.733l0,0v-6.958l0,0
		c0-0.952,0-1.098,0.927-1.098l0,0h0.708h6.738l0,0c3.955-0.171,4.932-1.099,4.932-5.591l0,0v-17.236l0,0
		C404.389,259.163,403.412,258.333,399.457,258.333L399.457,258.333L399.457,258.333L399.457,258.333z M394.355,279.768
		c-0.049,1.074-0.855,1.611-1.636,1.611c-0.83,0-1.636-0.562-1.636-1.709l0,0v-15.747l0,0c0-1.074,0.806-1.636,1.636-1.636
		c0.83,0,1.636,0.561,1.636,1.709l0,0V279.768L394.355,279.768L394.355,279.768z"/>
	<path fill-rule="evenodd" clip-rule="evenodd" fill="#231F20" d="M431.416,259.163c0-0.83-0.171-0.562-0.928-0.83l0,0h-8.203l0,0
		c-0.903,0-0.903,0-0.903,0.83l0,0l-0.024,28.589l0,0c0,2.807-3.174,2.734-3.174,0l0,0v-28.589l0,0c0-0.83,0-0.83-0.83-0.83l0,0
		h-8.569l0,0c-1.001,0-1.001,0-1.001,0.83l0,0v30.249l0,0c0,4.468,1.001,5.2,3.735,5.2l0,0h15.869l0,0
		c3.101,0,4.126-0.83,4.028-4.932l0,0V259.163L431.416,259.163L431.416,259.163z"/>
	<path fill-rule="evenodd" clip-rule="evenodd" fill="#231F20" d="M467.158,258.333h-28.272l0,0c-3.369,0-4.37,0.83-4.37,4.126l0,0
		v31.421l0,0c0,0.733,0,0.733,1.001,0.733l0,0h7.935l0,0c1.098,0,1.098,0,1.098-0.733l0,0v-29.59l0,0c0-2.588,3.174-2.856,3.174,0
		l0,0v29.59l0,0c0,0.733,0,0.733,1.196,0.733l0,0h7.91l0,0c0.928,0,0.928,0,0.928-0.733l0,0v-29.59l0,0c0-2.441,3.174-2.588,3.174,0
		l0,0v29.59l0,0c0,0.733,0,0.733,1.001,0.733l0,0h8.13l0,0c0.903,0,0.903,0,0.903-0.733l0,0v-31.617l0,0
		C470.967,259.163,469.966,258.333,467.158,258.333L467.158,258.333L467.158,258.333L467.158,258.333z"/>
	<path fill-rule="evenodd" clip-rule="evenodd" fill="#231F20" d="M494.6,258.333h-8.179h-7.861l0,0c-2.661,0-3.76,0.83-3.76,3.955
		l0,0v31.592l0,0c0,0.733,0,0.733,1.098,0.733l0,0h7.935l0,0c1.001,0,1.001,0,1.001-0.733l0,0v-7.055l0,0
		c0.098-1.099,0.83-1.661,1.587-1.685c0.806-0.025,1.612,0.562,1.612,1.782l0,0v6.958l0,0c0,0.733,0,0.733,1.001,0.733l0,0h8.228
		l0,0c0.806,0,0.806,0,0.806-0.733l0,0v-31.617l0,0C498.066,259.163,497.236,258.333,494.6,258.333L494.6,258.333L494.6,258.333
		L494.6,258.333z M488.032,279.768c0,0.977-0.806,1.465-1.612,1.441c-0.781,0-1.587-0.488-1.587-1.441l0,0V264.29l0,0
		c0-1.074,0.806-1.587,1.587-1.587c0.806,0.024,1.612,0.562,1.612,1.587l0,0V279.768L488.032,279.768L488.032,279.768z"/>
	<path fill-rule="evenodd" clip-rule="evenodd" fill="#231F20" d="M506.855,288.949c-0.024,0-0.049,0-0.073,0
		c-2.368,0-4.321,1.953-4.321,4.37c0,2.368,1.953,4.321,4.321,4.321c0.024,0,0.049,0,0.073,0c2.393-0.024,4.297-1.953,4.297-4.321
		C511.153,290.926,509.248,288.997,506.855,288.949L506.855,288.949L506.855,288.949L506.855,288.949z M510.273,293.685
		c-0.268,1.831-1.709,3.052-3.418,3.076c-0.464,0-0.928-0.073-1.392-0.244c-1.44-0.708-2.246-1.929-2.124-3.54
		c0.268-1.953,1.855-3.174,3.515-3.149c0.952,0,1.904,0.391,2.637,1.269C510.078,291.927,510.322,292.635,510.273,293.685
		L510.273,293.685L510.273,293.685L510.273,293.685z"/>
	<path fill-rule="evenodd" clip-rule="evenodd" fill="#231F20" d="M508.247,293.392c0.317-0.293,0.488-0.683,0.488-1.147
		c0-0.415-0.195-0.782-0.586-1.05c-0.342-0.268-0.806-0.439-1.294-0.464c-0.049,0-0.097,0-0.171,0l0,0h-1.709l-0.024,5.2h0.854
		l-0.024-2.026h0.659l0.415,0.561l1.099,1.44h0.83l-1.612-2.05l0,0C507.539,293.856,507.905,293.661,508.247,293.392
		L508.247,293.392L508.247,293.392L508.247,293.392z M506.685,293.245h-0.879l-0.024-1.953h0.903l0,0
		c0.074,0,0.122,0.024,0.171,0.024c0.269,0.025,0.537,0.122,0.708,0.268c0.22,0.171,0.366,0.44,0.366,0.66
		c0,0.293-0.122,0.513-0.366,0.708c-0.195,0.171-0.44,0.268-0.708,0.293C506.807,293.245,506.758,293.245,506.685,293.245
		L506.685,293.245L506.685,293.245L506.685,293.245z"/>
	<path fill-rule="evenodd" clip-rule="evenodd" fill="#231F20" d="M534.126,221.419c-0.757-1.221-2.393-0.854-4.37,0.098
		c-2.563,1.099-7.178,6.225-8.3,9.082c-1.001,4.102-3.345,7.886-7.154,11.963c-3.833,3.125-10.644,1.88-14.575-0.61
		c-0.244,0-16.382-12.573-16.382-12.573c-5.786-4.565-9.814-6.543-14.673-7.129c-0.244-0.146-0.464-0.39-0.537-0.561
		c-0.757-1.685-0.903-1.538-1.441-1.953c-0.635,0.488-1.099,0.757-1.734,0.952c-0.293,0-0.342,0-0.513-0.098
		c-0.391-0.171-0.806-0.513-1.221-0.537c-0.488,0.098-0.879,1.074-1.538,2.051c0,0-1.123,0.977-2.148,1.831
		c-0.391,0.342-0.44,0.879-0.708,1.197c-0.537,0.586-1.172,1.538-1.269,1.538c-0.244,0.683-0.342,1.294,0.098,1.611
		c0,0.757,0.39,0.952,0.537,1.123c0.122,0.244,0.146,0.342,0.317,0.513c0.293,0.122,0.537,0.171,0.83,0.244
		c1.562,1.441,2.197,1.416,4.004,1.172c3.125,0.22,2.856,1.27,2.783,2.856c-0.195,0.244-0.244,0.22-0.464,0.342
		c-1.392,0-2.857-0.317-4.248-0.317c-3.052,0.269-5.689,0.806-5.445,4.492c0.196,1.441,2.808,3.442,4.175,0.732
		c0.195-1.245,1.245-0.683,2.148-0.391c5.469,2.368,9.839,3.589,12.744,1.123c0.879-1.099,1.416-0.317,2.319,0.342
		c4.395,5.225,10.693,8.618,20.386,8.74c3.223,0.806,5.689,2.149,6.909,5.322c3.003,7.69,6.812,13.892,12.403,17.139
		c-0.464,4.859-0.269,8.887,4.639,9.937c1.294-1.05-0.513-2.637,0.976-6.202c-0.122-1.587-1.489-2.881-1.953-5.908
		c-5.713-4.687-3.296-6.616-4.151-9.741c-0.073-4.565-1.074-8.056-3.003-11.523c-0.22-0.562,0.147-0.977,0.659-1.27
		c3.223-2.417,4.981-4.785,5.762-7.08c1.196-4.077,3.222-7.275,6.104-9.571c2.441-1.953,4.761-2.563,7.398-4.297
		C535.127,223.372,534.883,222.639,534.126,221.419L534.126,221.419L534.126,221.419L534.126,221.419z"/>
</g>
</svg>
